# xmcd CD database file
#
# Track frame offsets:
#	150
#	22557
#	59897
#	83960
#	101362
#	124725
#	145365
#	173897
#	199227
#	235842
#	259202
#	302327
#	318582
#
# Disc length: 4660 seconds
#
# Revision: 2
# Processed by: cddbd v1.5.2PL0 Copyright (c) Steve Scherf et al.
# Submitted via: CDex 1.51
#
DISCID=b012320d
DTITLE=Albert Collins - Frozen Alive! - Live In Japan
DYEAR=1900
DGENRE=Blues
TTITLE0=Frosty
TTITLE1=Angel Of Mercy
TTITLE2=I Got That Feeling
TTITLE3=Caldonia
TTITLE4=Things I Used To Do
TTITLE5=Got A Mind To Travel
TTITLE6=Cold Cuts
TTITLE7=Listen Here!
TTITLE8=If Trouble Was Money
TTITLE9=Tired Man
TTITLE10=Stormy Monday
TTITLE11=Skatin'
TTITLE12=All About My Girl
EXTD=
EXTT0=
EXTT1=
EXTT2=
EXTT3=
EXTT4=
EXTT5=
EXTT6=
EXTT7=
EXTT8=
EXTT9=
EXTT10=
EXTT11=
EXTT12=
PLAYORDER=
